<svg width="60" height="49" viewBox="0 0 60 49" fill="none" xmlns="http://www.w3.org/2000/svg">
<path d="M9 8.5C9 10.1875 9.84375 11.5938 11.25 12.4375C12.5625 13.2812 14.3438 13.2812 15.75 12.4375C17.0625 11.5938 18 10.1875 18 8.5C18 6.90625 17.0625 5.5 15.75 4.65625C14.3438 3.8125 12.5625 3.8125 11.25 4.65625C9.84375 5.5 9 6.90625 9 8.5ZM21 8.5C21 11.2188 19.5 13.6562 17.25 15.0625C14.9062 16.375 12 16.375 9.75 15.0625C7.40625 13.6562 6 11.2188 6 8.5C6 5.875 7.40625 3.4375 9.75 2.03125C12 0.71875 14.9062 0.71875 17.25 2.03125C19.5 3.4375 21 5.875 21 8.5ZM30 16C27.8438 16 25.875 17.2188 24.75 19C23.7188 20.875 23.7188 23.2188 24.75 25C25.875 26.875 27.8438 28 30 28C32.0625 28 34.0312 26.875 35.1562 25C36.1875 23.2188 36.1875 20.875 35.1562 19C34.0312 17.2188 32.0625 16 30 16ZM30 31C26.7188 31 23.8125 29.3125 22.125 26.5C20.5312 23.7812 20.5312 20.3125 22.125 17.5C23.8125 14.7812 26.7188 13 30 13C33.1875 13 36.0938 14.7812 37.7812 17.5C39.375 20.3125 39.375 23.7812 37.7812 26.5C36.0938 29.3125 33.1875 31 30 31ZM24.4688 37C19.4062 37 15.1875 41.0312 15 46H44.9062C44.7188 41.0312 40.5 37 35.4375 37H24.4688ZM24.4688 34H35.4375C42.375 34 48 39.625 48 46.5625C48 47.9688 46.875 49 45.4688 49H14.4375C13.0312 49 12 47.875 12 46.5625C12 39.625 17.5312 34 24.4688 34ZM48 4C46.3125 4 44.9062 4.9375 44.0625 6.25C43.2188 7.65625 43.2188 9.4375 44.0625 10.75C44.9062 12.1562 46.3125 13 48 13C49.5938 13 51 12.1562 51.8438 10.75C52.6875 9.4375 52.6875 7.65625 51.8438 6.25C51 4.9375 49.5938 4 48 4ZM48 16C45.2812 16 42.8438 14.5938 41.4375 12.25C40.125 10 40.125 7.09375 41.4375 4.75C42.8438 2.5 45.2812 1 48 1C50.625 1 53.0625 2.5 54.4688 4.75C55.7812 7.09375 55.7812 10 54.4688 12.25C53.0625 14.5938 50.625 16 48 16ZM49.5 22H42C42 20.9688 41.8125 20.0312 41.625 19H49.5C55.2188 19 60 23.7812 60 29.5C60 30.3438 59.25 31 58.5 31C57.6562 31 57 30.3438 57 29.5C57 25.375 53.625 22 49.5 22ZM18 22H10.5C6.28125 22 3 25.375 3 29.5C3 30.3438 2.25 31 1.5 31C0.65625 31 0 30.3438 0 29.5C0 23.7812 4.6875 19 10.5 19H18.375C18.0938 20.0312 18 20.9688 18 22Z" fill="#EC1A3B"/>
</svg>
